{
	"asset":{
		"generator":"Khronos glTF Blender I/O v3.6.27",
		"version":"2.0"
	},
	"scene":0,
	"scenes":[
		{
			"name":"Scene",
			"nodes":[
				0,
				1,
				2,
				3
			]
		}
	],
	"nodes":[
		{
			"mesh":0,
			"name":"Keycaps",
			"scale":[
				0.728642463684082,
				0.728642463684082,
				0.728642463684082
			],
			"translation":[
				0,
				0.5288326740264893,
				0
			]
		},
		{
			"mesh":1,
			"name":"Plate",
			"scale":[
				1.607100486755371,
				0.25799593329429626,
				2.350677251815796
			]
		},
		{
			"mesh":2,
			"name":"Character",
			"rotation":[
				0.46208035945892334,
				0.5352398753166199,
				-0.4620803892612457,
				0.5352398753166199
			],
			"scale":[
				2.8523619174957275,
				2.8523616790771484,
				2.8523616790771484
			],
			"translation":[
				1.3333064317703247,
				1.378533124923706,
				-0.1686328500509262
			]
		},
		{
			"mesh":3,
			"name":"Plane",
			"scale":[
				4.66093635559082,
				4.66093635559082,
				4.66093635559082
			],
			"translation":[
				0,
				-0.2583233416080475,
				0
			]
		}
	],
	"materials":[
		{
			"doubleSided":true,
			"name":"Keycaps",
			"pbrMetallicRoughness":{
				"baseColorTexture":{
					"index":0
				},
				"metallicFactor":0,
				"roughnessFactor":0.5
			}
		},
		{
			"doubleSided":true,
			"name":"Plate",
			"pbrMetallicRoughness":{
				"baseColorTexture":{
					"index":1
				},
				"metallicFactor":0,
				"roughnessFactor":0.5
			}
		},
		{
			"alphaMode":"BLEND",
			"doubleSided":true,
			"name":"Character",
			"pbrMetallicRoughness":{
				"baseColorTexture":{
					"index":2
				},
				"metallicFactor":0,
				"roughnessFactor":0.5
			}
		},
		{
			"alphaMode":"BLEND",
			"doubleSided":true,
			"name":"Plane",
			"pbrMetallicRoughness":{
				"baseColorTexture":{
					"index":3
				},
				"metallicFactor":0,
				"roughnessFactor":0.5
			}
		}
	],
	"meshes":[
		{
			"name":"Cube.005",
			"primitives":[
				{
					"attributes":{
						"POSITION":0,
						"NORMAL":1,
						"TEXCOORD_0":2
					},
					"indices":3,
					"material":0
				}
			]
		},
		{
			"name":"Cube.006",
			"primitives":[
				{
					"attributes":{
						"POSITION":4,
						"NORMAL":5,
						"TEXCOORD_0":6
					},
					"indices":7,
					"material":1
				}
			]
		},
		{
			"name":"character",
			"primitives":[
				{
					"attributes":{
						"POSITION":8,
						"NORMAL":9,
						"TEXCOORD_0":10
					},
					"indices":11,
					"material":2
				}
			]
		},
		{
			"name":"Plane.001",
			"primitives":[
				{
					"attributes":{
						"POSITION":12,
						"NORMAL":13,
						"TEXCOORD_0":14
					},
					"indices":15,
					"material":3
				}
			]
		}
	],
	"textures":[
		{
			"sampler":0,
			"source":0
		},
		{
			"sampler":0,
			"source":1
		},
		{
			"sampler":1,
			"source":2
		},
		{
			"sampler":0,
			"source":3
		}
	],
	"images":[
		{
			"bufferView":4,
			"mimeType":"image/png",
			"name":"keycaps bake"
		},
		{
			"bufferView":9,
			"mimeType":"image/png",
			"name":"plate bake"
		},
		{
			"bufferView":14,
			"mimeType":"image/png",
			"name":"character"
		},
		{
			"bufferView":19,
			"mimeType":"image/png",
			"name":"shadow2"
		}
	],
	"accessors":[
		{
			"bufferView":0,
			"componentType":5126,
			"count":864,
			"max":[
				2.029311180114746,
				0.4889547824859619,
				3.0586233139038086
			],
			"min":[
				-2.0293116569519043,
				-0.4889547526836395,
				-3.058622360229492
			],
			"type":"VEC3"
		},
		{
			"bufferView":1,
			"componentType":5126,
			"count":864,
			"type":"VEC3"
		},
		{
			"bufferView":2,
			"componentType":5126,
			"count":864,
			"type":"VEC2"
		},
		{
			"bufferView":3,
			"componentType":5123,
			"count":1656,
			"type":"SCALAR"
		},
		{
			"bufferView":5,
			"componentType":5126,
			"count":229,
			"max":[
				1,
				1,
				1
			],
			"min":[
				-1,
				-1,
				-1
			],
			"type":"VEC3"
		},
		{
			"bufferView":6,
			"componentType":5126,
			"count":229,
			"type":"VEC3"
		},
		{
			"bufferView":7,
			"componentType":5126,
			"count":229,
			"type":"VEC2"
		},
		{
			"bufferView":8,
			"componentType":5123,
			"count":468,
			"type":"SCALAR"
		},
		{
			"bufferView":10,
			"componentType":5126,
			"count":36,
			"max":[
				0.5,
				0.06887860596179962,
				0.5101600289344788
			],
			"min":[
				-0.5,
				-0.0699976459145546,
				-0.510325014591217
			],
			"type":"VEC3"
		},
		{
			"bufferView":11,
			"componentType":5126,
			"count":36,
			"type":"VEC3"
		},
		{
			"bufferView":12,
			"componentType":5126,
			"count":36,
			"type":"VEC2"
		},
		{
			"bufferView":13,
			"componentType":5123,
			"count":72,
			"type":"SCALAR"
		},
		{
			"bufferView":15,
			"componentType":5126,
			"count":4,
			"max":[
				1,
				0,
				1
			],
			"min":[
				-1,
				0,
				-1
			],
			"type":"VEC3"
		},
		{
			"bufferView":16,
			"componentType":5126,
			"count":4,
			"type":"VEC3"
		},
		{
			"bufferView":17,
			"componentType":5126,
			"count":4,
			"type":"VEC2"
		},
		{
			"bufferView":18,
			"componentType":5123,
			"count":6,
			"type":"SCALAR"
		}
	],
	"bufferViews":[
		{
			"buffer":0,
			"byteLength":10368,
			"byteOffset":0,
			"target":34962
		},
		{
			"buffer":0,
			"byteLength":10368,
			"byteOffset":10368,
			"target":34962
		},
		{
			"buffer":0,
			"byteLength":6912,
			"byteOffset":20736,
			"target":34962
		},
		{
			"buffer":0,
			"byteLength":3312,
			"byteOffset":27648,
			"target":34963
		},
		{
			"buffer":0,
			"byteLength":442855,
			"byteOffset":30960
		},
		{
			"buffer":0,
			"byteLength":2748,
			"byteOffset":473816,
			"target":34962
		},
		{
			"buffer":0,
			"byteLength":2748,
			"byteOffset":476564,
			"target":34962
		},
		{
			"buffer":0,
			"byteLength":1832,
			"byteOffset":479312,
			"target":34962
		},
		{
			"buffer":0,
			"byteLength":936,
			"byteOffset":481144,
			"target":34963
		},
		{
			"buffer":0,
			"byteLength":227509,
			"byteOffset":482080
		},
		{
			"buffer":0,
			"byteLength":432,
			"byteOffset":709592,
			"target":34962
		},
		{
			"buffer":0,
			"byteLength":432,
			"byteOffset":710024,
			"target":34962
		},
		{
			"buffer":0,
			"byteLength":288,
			"byteOffset":710456,
			"target":34962
		},
		{
			"buffer":0,
			"byteLength":144,
			"byteOffset":710744,
			"target":34963
		},
		{
			"buffer":0,
			"byteLength":196086,
			"byteOffset":710888
		},
		{
			"buffer":0,
			"byteLength":48,
			"byteOffset":906976,
			"target":34962
		},
		{
			"buffer":0,
			"byteLength":48,
			"byteOffset":907024,
			"target":34962
		},
		{
			"buffer":0,
			"byteLength":32,
			"byteOffset":907072,
			"target":34962
		},
		{
			"buffer":0,
			"byteLength":12,
			"byteOffset":907104,
			"target":34963
		},
		{
			"buffer":0,
			"byteLength":66412,
			"byteOffset":907116
		}
	],
	"samplers":[
		{
			"magFilter":9729,
			"minFilter":9987
		},
		{
			"magFilter":9729,
			"minFilter":9987,
			"wrapS":33071,
			"wrapT":33071
		}
	],
	"buffers":[
		{
			"byteLength":973528,
			"uri":"data:application/octet-stream;base64,"
		}
	]
}
