<svg width="18" height="19" viewBox="0 0 18 19" fill="none" xmlns="http://www.w3.org/2000/svg">
<g id="Icon">
<path id="Vector" d="M14.4525 4.49747C13.455 4.03247 12.375 3.69497 11.25 3.49997C11.2401 3.49966 11.2303 3.50151 11.2212 3.5054C11.2121 3.50928 11.204 3.51511 11.1975 3.52247C11.0625 3.76997 10.905 4.09247 10.8 4.33997C9.60672 4.15997 8.39322 4.15997 7.19997 4.33997C7.09497 4.08497 6.93747 3.76997 6.79497 3.52247C6.78747 3.50747 6.76497 3.49997 6.74247 3.49997C5.61747 3.69497 4.54497 4.03247 3.53997 4.49747C3.53247 4.49747 3.52497 4.50497 3.51747 4.51247C1.47747 7.56497 0.914966 10.535 1.19247 13.475C1.19247 13.49 1.19997 13.505 1.21497 13.5125C2.56497 14.5025 3.86247 15.1025 5.14497 15.5C5.16747 15.5075 5.18997 15.5 5.19747 15.485C5.49747 15.0725 5.76747 14.6375 5.99997 14.18C6.01497 14.15 5.99997 14.12 5.96997 14.1125C5.54247 13.9475 5.13747 13.7525 4.73997 13.5275C4.70997 13.5125 4.70997 13.4675 4.73247 13.445C4.81497 13.385 4.89747 13.3175 4.97997 13.2575C4.99497 13.2425 5.01747 13.2425 5.03247 13.25C7.61247 14.4275 10.395 14.4275 12.945 13.25C12.96 13.2425 12.9825 13.2425 12.9975 13.2575C13.08 13.325 13.1625 13.385 13.245 13.4525C13.275 13.475 13.275 13.52 13.2375 13.535C12.8475 13.7675 12.435 13.955 12.0075 14.12C11.9775 14.1275 11.97 14.165 11.9775 14.1875C12.2175 14.645 12.4875 15.08 12.78 15.4925C12.8025 15.5 12.825 15.5075 12.8475 15.5C14.1375 15.1025 15.435 14.5025 16.785 13.5125C16.8 13.505 16.8075 13.49 16.8075 13.475C17.1375 10.0775 16.26 7.12997 14.4825 4.51247C14.475 4.50497 14.4675 4.49747 14.4525 4.49747ZM6.38997 11.6825C5.61747 11.6825 4.97247 10.97 4.97247 10.0925C4.97247 9.21497 5.60247 8.50247 6.38997 8.50247C7.18497 8.50247 7.81497 9.22247 7.80747 10.0925C7.80747 10.97 7.17747 11.6825 6.38997 11.6825ZM11.6175 11.6825C10.845 11.6825 10.2 10.97 10.2 10.0925C10.2 9.21497 10.83 8.50247 11.6175 8.50247C12.4125 8.50247 13.0425 9.22247 13.035 10.0925C13.035 10.97 12.4125 11.6825 11.6175 11.6825Z" fill="white"/>
</g>
</svg>
