<svg width="18" height="19" viewBox="0 0 18 19" fill="none" xmlns="http://www.w3.org/2000/svg">
<g id="Icon">
<path id="Vector" d="M9 2C8.01509 2 7.03982 2.19399 6.12987 2.5709C5.21993 2.94781 4.39314 3.50026 3.6967 4.1967C2.29018 5.60322 1.5 7.51088 1.5 9.5C1.5 12.815 3.6525 15.6275 6.63 16.625C7.005 16.685 7.125 16.4525 7.125 16.25V14.9825C5.0475 15.4325 4.605 13.9775 4.605 13.9775C4.26 13.1075 3.7725 12.875 3.7725 12.875C3.09 12.41 3.825 12.425 3.825 12.425C4.575 12.4775 4.9725 13.1975 4.9725 13.1975C5.625 14.3375 6.7275 14 7.155 13.82C7.2225 13.3325 7.4175 13.0025 7.6275 12.815C5.9625 12.6275 4.215 11.9825 4.215 9.125C4.215 8.2925 4.5 7.625 4.9875 7.0925C4.9125 6.905 4.65 6.125 5.0625 5.1125C5.0625 5.1125 5.6925 4.91 7.125 5.8775C7.7175 5.7125 8.3625 5.63 9 5.63C9.6375 5.63 10.2825 5.7125 10.875 5.8775C12.3075 4.91 12.9375 5.1125 12.9375 5.1125C13.35 6.125 13.0875 6.905 13.0125 7.0925C13.5 7.625 13.785 8.2925 13.785 9.125C13.785 11.99 12.03 12.62 10.3575 12.8075C10.6275 13.04 10.875 13.4975 10.875 14.195V16.25C10.875 16.4525 10.995 16.6925 11.3775 16.625C14.355 15.62 16.5 12.815 16.5 9.5C16.5 8.51509 16.306 7.53982 15.9291 6.62987C15.5522 5.71993 14.9997 4.89314 14.3033 4.1967C13.6069 3.50026 12.7801 2.94781 11.8701 2.5709C10.9602 2.19399 9.98491 2 9 2Z" fill="white"/>
</g>
</svg>
