<svg width="18" height="19" viewBox="0 0 18 19" fill="none" xmlns="http://www.w3.org/2000/svg">
<g id="Icon">
<path id="Vector" d="M7.5 11.75L11.3925 9.5L7.5 7.25V11.75ZM16.17 5.8775C16.2675 6.23 16.335 6.7025 16.38 7.3025C16.4325 7.9025 16.455 8.42 16.455 8.87L16.5 9.5C16.5 11.1425 16.38 12.35 16.17 13.1225C15.9825 13.7975 15.5475 14.2325 14.8725 14.42C14.52 14.5175 13.875 14.585 12.885 14.63C11.91 14.6825 11.0175 14.705 10.1925 14.705L9 14.75C5.8575 14.75 3.9 14.63 3.1275 14.42C2.4525 14.2325 2.0175 13.7975 1.83 13.1225C1.7325 12.77 1.665 12.2975 1.62 11.6975C1.5675 11.0975 1.545 10.58 1.545 10.13L1.5 9.5C1.5 7.8575 1.62 6.65 1.83 5.8775C2.0175 5.2025 2.4525 4.7675 3.1275 4.58C3.48 4.4825 4.125 4.415 5.115 4.37C6.09 4.3175 6.9825 4.295 7.8075 4.295L9 4.25C12.1425 4.25 14.1 4.37 14.8725 4.58C15.5475 4.7675 15.9825 5.2025 16.17 5.8775Z" fill="white"/>
</g>
</svg>
